<svg id="visual" viewBox="0 0 1440 320" width="1440" height="320" xmlns="http://www.w3.org/2000/svg" xmlns:xlink="http://www.w3.org/1999/xlink" version="1.1"><path d="M0 106L34.3 104.7C68.7 103.3 137.3 100.7 205.8 98.3C274.3 96 342.7 94 411.2 87.8C479.7 81.7 548.3 71.3 617 73.5C685.7 75.7 754.3 90.3 823 91.5C891.7 92.7 960.3 80.3 1028.8 81C1097.3 81.7 1165.7 95.3 1234.2 93.7C1302.7 92 1371.3 75 1405.7 66.5L1440 58L1440 0L1405.7 0C1371.3 0 1302.7 0 1234.2 0C1165.7 0 1097.3 0 1028.8 0C960.3 0 891.7 0 823 0C754.3 0 685.7 0 617 0C548.3 0 479.7 0 411.2 0C342.7 0 274.3 0 205.8 0C137.3 0 68.7 0 34.3 0L0 0Z" fill="#f3efe6" stroke-linecap="round" stroke-linejoin="miter"></path></svg>