<svg id="visual" viewBox="0 0 1440 320" width="1440" height="320" xmlns="http://www.w3.org/2000/svg" xmlns:xlink="http://www.w3.org/1999/xlink" version="1.1"><path d="M0 212L34.3 213.3C68.7 214.7 137.3 217.3 205.8 219.7C274.3 222 342.7 224 411.2 230.2C479.7 236.3 548.3 246.7 617 244.5C685.7 242.3 754.3 227.7 823 226.5C891.7 225.3 960.3 237.7 1028.8 237C1097.3 236.3 1165.7 222.7 1234.2 224.3C1302.7 226 1371.3 243 1405.7 251.5L1440 260L1440 321L1405.7 321C1371.3 321 1302.7 321 1234.2 321C1165.7 321 1097.3 321 1028.8 321C960.3 321 891.7 321 823 321C754.3 321 685.7 321 617 321C548.3 321 479.7 321 411.2 321C342.7 321 274.3 321 205.8 321C137.3 321 68.7 321 34.3 321L0 321Z" fill="#f3efe6" stroke-linecap="round" stroke-linejoin="miter"></path></svg>